<svg width="759" height="616" viewBox="0 0 759 616" fill="none" xmlns="http://www.w3.org/2000/svg">
<rect width="759" height="616" fill="#E5E5E5"/>
<g id="undraw_Business_deal_re_up4u 1" clip-path="url(#clip0_0:1)">
<path id="Vector" d="M605.665 112.083C601.724 155.507 590.497 201.294 572.888 245.473C551.112 300.106 521.362 348.226 486.851 384.632L484.936 382.962C519.28 346.732 548.895 298.823 570.579 244.416C590.177 195.25 601.833 144.085 604.304 96.4746L606.751 96.8844C606.491 101.913 606.129 106.979 605.665 112.083Z" fill="#F2F2F2"/>
<path id="Vector_2" d="M621.362 364.278C572.889 441.394 514.082 496.494 455.772 519.426L454.592 517.263C512.499 494.489 570.962 439.672 619.213 362.908L621.362 364.278Z" fill="#F2F2F2"/>
<path id="Vector_3" d="M604.489 166.147C600.548 209.57 589.32 255.358 571.711 299.537C549.936 354.17 520.185 402.29 485.675 438.696L483.76 437.026C518.103 400.795 547.719 352.887 569.403 298.48C589 249.314 600.657 198.148 603.127 150.538L605.575 150.948C605.315 155.976 604.953 161.043 604.489 166.147Z" fill="#F2F2F2"/>
<path id="Vector_4" d="M60.3258 277.628H28.5221C27.8426 277.629 27.1716 277.477 26.5594 277.182C25.9473 276.887 25.4098 276.457 24.9874 275.925C24.5701 275.407 24.2757 274.8 24.1262 274.151C23.9768 273.503 23.9763 272.829 24.1246 272.18C27.1536 258.814 26.9633 244.921 23.5694 231.643C23.3548 230.769 23.4067 229.851 23.7185 229.006C24.0303 228.162 24.5877 227.43 25.3189 226.905C41.6725 215.143 54.5514 215.485 63.5982 227.921C64.0061 228.488 64.277 229.142 64.3897 229.831C66.807 244.363 66.9407 259.183 64.7862 273.756C64.6365 274.832 64.1021 275.817 63.282 276.528C62.4619 277.24 61.4117 277.631 60.3258 277.628V277.628Z" fill="#E6E6E6"/>
<path id="Vector_5" d="M50.4658 245.779H39.5253C38.9203 245.779 38.3401 245.539 37.9123 245.111C37.4845 244.683 37.2442 244.103 37.2442 243.498C37.2442 242.893 37.4845 242.313 37.9123 241.885C38.3401 241.457 38.9203 241.217 39.5253 241.217H50.4658C51.07 241.218 51.649 241.459 52.0757 241.887C52.5025 242.314 52.7422 242.894 52.7422 243.498C52.7422 244.102 52.5025 244.682 52.0757 245.109C51.649 245.537 51.07 245.778 50.4658 245.779V245.779Z" fill="white"/>
<path id="Vector_6" d="M50.4658 253.779H39.5253C38.9203 253.779 38.3401 253.539 37.9123 253.111C37.4845 252.683 37.2442 252.103 37.2442 251.498C37.2442 250.893 37.4845 250.313 37.9123 249.885C38.3401 249.457 38.9203 249.217 39.5253 249.217H50.4658C51.07 249.218 51.649 249.459 52.0757 249.887C52.5025 250.314 52.7422 250.894 52.7422 251.498C52.7422 252.102 52.5025 252.682 52.0757 253.109C51.649 253.537 51.07 253.778 50.4658 253.779V253.779Z" fill="white"/>
<path id="Vector_7" d="M50.4658 261.779H39.5253C38.9203 261.779 38.3401 261.539 37.9123 261.111C37.4845 260.683 37.2442 260.103 37.2442 259.498C37.2442 258.893 37.4845 258.313 37.9123 257.885C38.3401 257.457 38.9203 257.217 39.5253 257.217H50.4658C51.07 257.218 51.649 257.459 52.0757 257.887C52.5025 258.314 52.7422 258.894 52.7422 259.498C52.7422 260.102 52.5025 260.682 52.0757 261.109C51.649 261.537 51.07 261.778 50.4658 261.779V261.779Z" fill="white"/>
<path id="Vector_8" d="M638.326 419.628H606.522C605.843 419.629 605.172 419.477 604.559 419.182C603.947 418.887 603.41 418.457 602.987 417.925C602.57 417.406 602.276 416.8 602.126 416.151C601.977 415.503 601.976 414.829 602.125 414.18C605.154 400.814 604.963 386.921 601.569 373.643C601.355 372.769 601.407 371.851 601.718 371.006C602.03 370.162 602.588 369.43 603.319 368.905C619.672 357.143 632.551 357.485 641.598 369.921C642.006 370.488 642.277 371.142 642.39 371.831C644.807 386.363 644.941 401.183 642.786 415.756C642.636 416.832 642.102 417.817 641.282 418.528C640.462 419.24 639.412 419.631 638.326 419.628V419.628Z" fill="#E6E6E6"/>
<path id="Vector_9" d="M628.466 387.779H617.525C616.921 387.778 616.342 387.537 615.915 387.109C615.489 386.682 615.249 386.102 615.249 385.498C615.249 384.894 615.489 384.314 615.915 383.887C616.342 383.459 616.921 383.218 617.525 383.217H628.466C629.071 383.217 629.651 383.457 630.079 383.885C630.507 384.313 630.747 384.893 630.747 385.498C630.747 386.103 630.507 386.683 630.079 387.111C629.651 387.539 629.071 387.779 628.466 387.779Z" fill="white"/>
<path id="Vector_10" d="M628.466 395.779H617.525C616.921 395.778 616.342 395.537 615.915 395.109C615.489 394.682 615.249 394.102 615.249 393.498C615.249 392.894 615.489 392.314 615.915 391.887C616.342 391.459 616.921 391.218 617.525 391.217H628.466C629.071 391.217 629.651 391.457 630.079 391.885C630.507 392.313 630.747 392.893 630.747 393.498C630.747 394.103 630.507 394.683 630.079 395.111C629.651 395.539 629.071 395.779 628.466 395.779Z" fill="white"/>
<path id="Vector_11" d="M628.466 403.779H617.525C616.921 403.778 616.342 403.537 615.915 403.109C615.489 402.682 615.249 402.102 615.249 401.498C615.249 400.894 615.489 400.314 615.915 399.887C616.342 399.459 616.921 399.218 617.525 399.217H628.466C629.071 399.217 629.651 399.457 630.079 399.885C630.507 400.313 630.747 400.893 630.747 401.498C630.747 402.103 630.507 402.683 630.079 403.111C629.651 403.539 629.071 403.779 628.466 403.779Z" fill="white"/>
<path id="Vector_12" d="M758.67 614.136C758.671 614.293 758.64 614.448 758.58 614.592C758.521 614.737 758.433 614.868 758.323 614.979C758.212 615.089 758.081 615.177 757.936 615.237C757.791 615.296 757.636 615.327 757.48 615.326H1.19C0.874395 615.326 0.571725 615.201 0.348557 614.978C0.125388 614.755 0 614.452 0 614.136C0 613.821 0.125388 613.518 0.348557 613.295C0.571725 613.072 0.874395 612.946 1.19 612.946H757.48C757.636 612.946 757.791 612.976 757.936 613.036C758.081 613.096 758.212 613.183 758.323 613.294C758.433 613.404 758.521 613.536 758.58 613.68C758.64 613.825 758.671 613.98 758.67 614.136V614.136Z" fill="#CCCCCC"/>
<path id="Vector_13" d="M199.504 541.276L197.52 513.688C184.527 507.192 170.144 503.967 155.621 504.292C176.053 520.085 174.416 551.649 188.566 573.251C193.031 579.955 198.947 585.568 205.876 589.674C212.805 593.781 220.57 596.275 228.594 596.973L245.598 606.755C247.543 593.899 246.678 580.774 243.062 568.285C239.447 555.795 233.166 544.238 224.654 534.409C219.824 528.943 214.324 524.107 208.286 520.014C204.569 530.685 199.504 541.276 199.504 541.276Z" fill="#F2F2F2"/>
<path id="Vector_14" d="M559.166 545.276L561.15 517.688C574.144 511.192 588.526 507.967 603.049 508.292C582.617 524.085 584.254 555.649 570.104 577.251C565.639 583.955 559.723 589.568 552.794 593.674C545.865 597.781 538.1 600.275 530.076 600.973L513.072 610.755C511.127 597.899 511.992 584.774 515.608 572.285C519.223 559.795 525.504 548.238 534.016 538.409C538.846 532.943 544.346 528.107 550.384 524.014C554.101 534.685 559.166 545.276 559.166 545.276Z" fill="#F2F2F2"/>
<path id="Vector_15" d="M83 601.081L86.83 601.081L101.783 595L109.797 601.08H109.799C114.328 601.08 118.671 602.88 121.874 606.082C125.076 609.285 126.876 613.628 126.876 618.157V618.712L83.0008 618.714L83 601.081Z" fill="#2F2E41"/>
<path id="Vector_16" d="M144 597.081L147.83 597.081L162.783 591L170.798 597.08H170.799C175.328 597.08 179.671 598.88 182.874 602.082C186.076 605.285 187.876 609.628 187.876 614.157V614.712L144.001 614.714L144 597.081Z" fill="#2F2E41"/>
<path id="Vector_17" d="M445.497 335.464L498.397 281.746L512.334 238.783L489.906 229.711C478.795 240.918 467.359 275.226 467.359 275.226L431.253 323.684C430.965 323.791 430.677 323.905 430.394 324.039C428.732 324.823 427.3 326.024 426.237 327.524C425.174 329.024 424.516 330.772 424.327 332.601C424.137 334.429 424.423 336.276 425.155 337.962C425.888 339.648 427.043 341.116 428.509 342.225C429.975 343.334 431.703 344.046 433.524 344.293C435.346 344.539 437.201 344.311 438.908 343.632C440.616 342.952 442.12 341.843 443.274 340.412C444.429 338.982 445.194 337.277 445.497 335.464Z" fill="#FFB8B8"/>
<path id="Vector_18" d="M483.788 234.626L512.151 242.831L512.257 242.81C522.682 240.786 530.929 223.46 536.012 209.282C537.683 204.605 537.517 199.468 535.547 194.91C533.576 190.351 529.949 186.71 525.397 184.724V184.724C522.029 183.282 518.325 182.81 514.703 183.362C511.081 183.914 507.686 185.469 504.902 187.849L490.76 200.027L483.788 234.626Z" fill="#E88C1A"/>
<path id="Vector_19" d="M459.521 598.895L444.267 598.894L437.011 540.059L459.523 540.06L459.521 598.895Z" fill="#FFB8B8"/>
<path id="Vector_20" d="M463.412 593.915L459.119 593.914L442.356 587.098L433.372 593.913H433.371C428.294 593.914 423.425 595.931 419.835 599.521C416.245 603.111 414.227 607.98 414.227 613.057V613.679L463.411 613.681L463.412 593.915Z" fill="#2F2E41"/>
<path id="Vector_21" d="M527.204 598.895L511.95 598.894L504.694 540.059L527.207 540.06L527.204 598.895Z" fill="#FFB8B8"/>
<path id="Vector_22" d="M531.095 593.915L526.802 593.914L510.039 587.098L501.055 593.913H501.054C495.977 593.914 491.108 595.931 487.518 599.521C483.928 603.111 481.911 607.98 481.91 613.057V613.679L531.094 613.681L531.095 593.915Z" fill="#2F2E41"/>
<path id="Vector_23" d="M550.463 345.47C550.463 345.47 552.244 366.843 547.791 387.326C543.338 407.809 543.338 465.496 543.338 465.496L533.542 577.908L504.153 575.236L496.138 387.326L467.64 450.557L470.312 459.462L466.753 461.689C466.753 461.689 469.421 479.055 467.64 479.055C465.859 479.055 461.406 481.726 461.406 481.726L464.968 573.455L434.689 572.564L424.002 443.432L435.58 369.515L436.47 355.266L440.478 355.431L442.518 349.477L446.267 339.236L550.463 345.47Z" fill="#2F2E41"/>
<path id="Vector_24" d="M552.002 349.959L552.161 349.736C560.638 337.868 547.889 309.35 545.966 305.216L554.065 302.588L552.241 287.085L551.377 280.174L557.567 273.984L557.584 273.829L561.147 242.659L566.326 221.957C568.278 214.13 568.111 205.926 565.844 198.185C563.577 190.444 559.291 183.446 553.426 177.909L541.453 166.621L526.903 145.092H503.44L495.395 160.288C487.595 162.091 480.675 166.573 475.839 172.953C471.004 179.333 468.561 187.208 468.934 195.205L470.758 235.06L463.62 284.683L463.615 293.663L455.582 302.591L457.336 311.361L451.223 313.981L448.523 326.578C447.406 328.052 440.033 337.884 440.033 340.572C440.033 340.975 440.33 341.365 440.97 341.798C445.995 345.201 473.769 352.138 486.062 347.219C499.156 341.983 551.207 349.837 551.732 349.917L552.002 349.959Z" fill="#E88C1A"/>
<path id="Vector_25" d="M512.141 138.142C529.303 138.142 543.215 124.23 543.215 107.068C543.215 89.9056 529.303 75.9931 512.141 75.9931C494.979 75.9931 481.066 89.9056 481.066 107.068C481.066 124.23 494.979 138.142 512.141 138.142Z" fill="#FFB8B8"/>
<path id="Vector_26" d="M509.164 138.645C513.976 138.596 518.776 138.136 523.51 137.27C528.196 136.19 538.537 128.194 541.355 123.47C543.449 119.961 544.706 114.532 545.392 110.596C546.318 105.387 546.139 100.042 544.868 94.9068C543.597 89.7714 541.261 84.9602 538.012 80.7848C536.76 79.0356 535.058 77.6574 533.087 76.7959C532.912 76.7329 532.733 76.6777 532.552 76.6311C529.695 75.9576 527.104 74.4455 525.112 72.2887C524.725 71.8521 524.308 71.4439 523.862 71.0672C521.628 69.2782 519.002 68.0433 516.199 67.4636C511.67 66.3761 505.192 67.7389 496.945 71.5177C492.802 73.4163 488.204 72.8866 484.659 72.2131C484.46 72.18 484.257 72.1995 484.068 72.2697C483.879 72.3399 483.712 72.4583 483.583 72.6131C482.12 74.0597 480.163 74.8988 478.106 74.9617C476.848 75.0496 475.571 76.8281 474.032 79.1441C473.683 79.6698 473.276 80.2834 472.98 80.6578L472.921 79.9546L472.229 80.7586C471.14 82.0223 470.389 83.5408 470.046 85.1728C469.703 86.8047 469.778 88.497 470.264 90.0921C470.751 91.6872 471.634 93.1333 472.83 94.2955C474.026 95.4578 475.496 96.2984 477.105 96.7393C478.381 97.0438 479.684 97.2171 480.996 97.2568C481.79 97.3076 482.613 97.3603 483.402 97.4764C485.939 97.9279 488.315 99.0295 490.299 100.674C492.283 102.318 493.806 104.448 494.721 106.856C494.937 107.413 495.278 107.913 495.717 108.317C496.157 108.721 496.684 109.018 497.256 109.186C497.829 109.354 498.433 109.388 499.021 109.286C499.61 109.184 500.166 108.948 500.649 108.596C501.451 107.937 502.401 107.482 503.418 107.27C504.434 107.057 505.487 107.094 506.486 107.377C507.355 107.831 508.041 108.57 508.43 109.47C508.9 110.472 509.657 111.311 510.606 111.88C513.841 113.444 514.25 120.731 513.26 126.839C512.306 132.728 510.23 137.023 508.213 137.285C506.659 137.486 506.484 137.601 506.379 137.88L506.284 138.129L506.465 138.355C507.333 138.645 508.254 138.744 509.164 138.645V138.645Z" fill="#2F2E41"/>
<path id="Vector_27" d="M482.041 235.032L467.104 216C451.889 220.19 424.893 244.253 424.893 244.253L369.451 268.312C367.601 268.001 365.701 268.183 363.943 268.84C362.186 269.496 360.632 270.605 359.438 272.053C358.245 273.501 357.454 275.237 357.146 277.088C356.837 278.939 357.021 280.839 357.68 282.595C358.339 284.352 359.449 285.905 360.898 287.096C362.348 288.288 364.085 289.077 365.936 289.383C367.788 289.69 369.687 289.503 371.443 288.842C373.199 288.182 374.75 287.07 375.94 285.619L448.567 265.357L482.041 235.032Z" fill="#FFB8B8"/>
<path id="Vector_28" d="M479.803 242.3L503.371 216.028L504.679 197.412C504.923 193.756 504.139 190.105 502.417 186.872C500.694 183.638 498.102 180.951 494.932 179.113V179.113C490.619 176.651 485.531 175.919 480.699 177.065C475.866 178.21 471.649 181.148 468.9 185.284C460.572 197.835 451.614 214.804 456.223 224.371L456.27 224.468L479.803 242.3Z" fill="#E88C1A"/>
<path id="Vector_29" d="M403.054 387.504L369.628 371.72C368.913 371.384 368.283 370.891 367.786 370.277C367.289 369.664 366.938 368.945 366.758 368.176C366.577 367.424 366.568 366.641 366.733 365.885C366.898 365.129 367.232 364.42 367.71 363.811C377.392 351.437 384.041 336.965 387.123 321.558C387.356 320.378 387.99 319.315 388.919 318.551C389.848 317.787 391.012 317.369 392.215 317.367C409.263 317.425 422.004 323.65 430.083 335.867C430.509 336.502 430.791 337.223 430.91 337.978C431.029 338.734 430.982 339.507 430.771 340.242C426.093 356.366 418.975 371.679 409.663 385.649C408.972 386.705 407.922 387.475 406.707 387.816C405.491 388.157 404.194 388.046 403.054 387.504Z" fill="#E6E6E6"/>
<path id="Vector_30" d="M412.887 365.366L387.329 353.297C386.693 352.997 386.203 352.456 385.965 351.795C385.728 351.133 385.763 350.404 386.064 349.768C386.364 349.132 386.904 348.641 387.566 348.404C388.228 348.167 388.957 348.202 389.593 348.502L415.151 360.571C415.466 360.72 415.749 360.929 415.983 361.187C416.216 361.445 416.397 361.746 416.515 362.074C416.632 362.402 416.684 362.749 416.667 363.097C416.65 363.445 416.565 363.786 416.417 364.101C416.268 364.416 416.059 364.698 415.801 364.932C415.543 365.166 415.242 365.347 414.914 365.464C414.586 365.582 414.238 365.634 413.891 365.617C413.543 365.6 413.202 365.515 412.887 365.366H412.887Z" fill="white"/>
<path id="Vector_31" d="M416.857 356.958L391.299 344.889C390.663 344.589 390.173 344.048 389.936 343.386C389.698 342.725 389.734 341.995 390.034 341.36C390.334 340.724 390.875 340.233 391.537 339.996C392.199 339.759 392.928 339.794 393.563 340.094L419.122 352.163C419.757 352.463 420.248 353.004 420.485 353.666C420.723 354.328 420.687 355.057 420.387 355.693C420.087 356.328 419.546 356.819 418.884 357.056C418.222 357.294 417.493 357.258 416.857 356.958V356.958Z" fill="white"/>
<path id="Vector_32" d="M382.706 93.0151L380.327 93.2757C369.719 51.5913 349.159 22.7129 320.865 9.7617C284.898 -6.70151 240.422 4.35384 195.631 40.8917C150.613 77.6161 110.76 135.625 83.4142 204.235L81.1057 203.178C108.571 134.269 148.629 75.9797 193.9 39.0512C239.398 1.93596 284.781 -9.20045 321.689 7.69382C350.794 21.0161 371.893 50.5198 382.706 93.0151Z" fill="#F2F2F2"/>
<path id="Vector_33" d="M120.232 147.304C114.01 160.41 108.093 173.989 102.643 187.662C71.2823 266.344 55.3902 346.699 56.6889 420.045L54.2379 419.784C52.9379 346.165 68.8758 265.533 100.334 186.605C105.8 172.894 111.734 159.277 117.974 146.133L120.232 147.304Z" fill="#F2F2F2"/>
<path id="Vector_34" d="M119.056 201.367C112.834 214.474 106.916 228.052 101.466 241.725C70.1059 320.408 54.2138 400.763 55.5124 474.109L53.0614 473.847C51.7614 400.229 67.6993 319.596 99.158 240.669C104.623 226.957 110.558 213.341 116.798 200.197L119.056 201.367Z" fill="#F2F2F2"/>
<path id="Vector_35" d="M53.1793 221.029C55.8887 216.957 54.285 211.127 49.5973 208.009C44.9096 204.89 38.9131 205.663 36.2037 209.736C33.4943 213.808 35.0979 219.638 39.7856 222.756C44.4733 225.875 50.4699 225.102 53.1793 221.029Z" fill="#CCCCCC"/>
<path id="Vector_36" d="M630.121 368.099C632.831 364.026 631.227 358.196 626.539 355.078C621.852 351.959 615.855 352.732 613.146 356.805C610.436 360.877 612.04 366.707 616.728 369.825C621.415 372.944 627.412 372.171 630.121 368.099Z" fill="#CCCCCC"/>
<g id="tick">
<path id="Vector_37" d="M378.335 53.9424C388.828 53.9424 397.335 45.4358 397.335 34.9424C397.335 24.4489 388.828 15.9424 378.335 15.9424C367.842 15.9424 359.335 24.4489 359.335 34.9424C359.335 45.4358 367.842 53.9424 378.335 53.9424Z" fill="#E88C1A"/>
<path id="Vector_38" d="M388.089 27.0238C387.803 26.7511 387.423 26.599 387.028 26.599C386.633 26.599 386.253 26.7511 385.967 27.0238C381.936 30.2391 378.315 33.9378 375.185 38.0366C374.417 36.5502 373.649 35.0638 372.881 33.5774C371.994 31.8617 369.404 33.3773 370.29 35.0915C371.414 37.2656 372.538 39.4398 373.661 41.6139C373.797 41.8358 373.987 42.0192 374.214 42.1465C374.441 42.2737 374.696 42.3405 374.956 42.3405C375.216 42.3405 375.472 42.2737 375.699 42.1465C375.926 42.0192 376.116 41.8358 376.252 41.6139C379.586 36.9175 383.572 32.7192 388.089 29.1451C388.368 28.8626 388.524 28.4815 388.524 28.0844C388.524 27.6873 388.368 27.3062 388.089 27.0238Z" fill="white"/>
</g>
<g id="person">
<g id="Frame 1">
<path id="Vector_39" d="M132.32 268.819L103.668 223.824L136.846 206.055L145.554 240.385L206.909 273.54C209.332 272.668 211.955 272.52 214.46 273.114C216.965 273.707 219.244 275.017 221.017 276.883C222.791 278.749 223.983 281.091 224.449 283.622C224.915 286.154 224.634 288.767 223.64 291.142C222.647 293.517 220.984 295.552 218.854 296.998C216.724 298.444 214.219 299.239 211.645 299.287C209.071 299.334 206.539 298.631 204.358 297.264C202.176 295.897 200.439 293.925 199.359 291.588L132.32 268.819Z" fill="#A0616A"/>
<path id="Vector_40" d="M82.7352 169.856C73.7328 183.074 105.725 231.119 105.725 231.119C107.284 227.759 122.182 265.485 124.678 263.256C131.77 256.922 142.872 239.28 149.043 238.493C152.572 238.044 140.858 213.015 140.858 213.015C140.858 213.015 135.504 198.235 128.24 179.356C126.285 173.981 123.002 169.187 118.696 165.422C114.39 161.656 109.202 159.041 103.614 157.821C103.614 157.821 91.7377 156.638 82.7352 169.856Z" fill="#3F3D56"/>
<path id="Vector_41" d="M83.175 600.491L96.782 600.49L103.255 548.005L83.172 548.006L83.175 600.491Z" fill="#A0616A"/>
<path id="Vector_42" d="M146.391 600.491L159.998 600.49L166.472 548.005L146.389 548.006L146.391 600.491Z" fill="#A0616A"/>
<path id="Vector_43" d="M152.281 313.552L63.7738 315.764C46.9644 324.894 46.7091 344.655 52.2168 368.117C52.2168 368.117 50.3575 382.062 54.0761 385.78C57.7947 389.499 59.6541 389.499 57.7947 396.006C55.9354 402.514 65.759 413.143 64.5659 414.336C63.3727 415.529 60.5837 422.037 60.5837 422.037L69.8803 475.027C69.8803 475.027 76.3879 567.063 78.2472 568.922C80.1065 570.782 81.9658 568.922 80.1065 573.571C78.2472 578.219 76.3879 576.36 78.2472 578.219C79.8942 579.995 81.4458 581.857 82.8955 583.797H105.372C105.372 583.797 107.067 574.5 107.067 573.571C107.067 572.641 108.926 567.063 108.926 566.133C108.926 565.204 107.282 563.56 107.282 563.56C106.715 561.671 106.331 559.73 106.137 557.767C106.137 555.907 100.559 484.324 100.559 484.324L111.715 391.358L138.675 482.464C138.675 482.464 138.675 562.415 140.534 564.274C142.393 566.133 142.393 565.204 141.464 568.922C140.534 572.641 136.815 571.711 139.604 574.5C142.393 577.289 143.323 572.641 142.393 577.289L141.464 581.938L169.353 582.337C169.353 582.337 173.072 574.5 171.213 571.711C169.353 568.922 169.465 569.684 171.733 565.12C174.002 560.556 174.931 559.626 174.002 558.696C173.072 557.767 173.072 552.822 173.072 552.822L168.424 463.871C168.424 463.871 167.494 369.976 167.494 367.187C167.424 365.752 167.688 364.32 168.266 363.005V359.219L164.705 345.805L152.281 313.552Z" fill="#2F2E41"/>
<path id="Vector_44" d="M99.1135 129.515C114.301 129.515 126.613 117.203 126.613 102.015C126.613 86.8275 114.301 74.5155 99.1135 74.5155C83.9258 74.5155 71.6138 86.8275 71.6138 102.015C71.6138 117.203 83.9258 129.515 99.1135 129.515Z" fill="#A0616A"/>
<path id="Vector_45" d="M112.863 147.69C118.788 151.212 122.332 157.684 124.366 164.269C128.133 176.461 130.4 189.066 131.118 201.806L133.266 239.947L159.879 321.161C136.815 340.677 50.1196 325.597 50.1196 325.597C50.1196 325.597 47.4583 324.71 50.1196 322.048C52.7808 319.387 55.3716 321.745 52.7104 319.083C50.0491 316.422 51.8837 319.387 52.7708 316.726C53.6579 314.064 52.7708 315.839 51.8837 314.952C50.9966 314.064 58.751 306.081 58.751 306.081L51.6544 259.463L42.7835 165.432C53.4286 152.126 74.8372 144.282 74.8372 144.282L80.3689 134.325L108.027 136.537L112.863 147.69Z" fill="#3F3D56"/>
<path id="Vector_46" d="M121.783 87.4051C123.92 88.9992 125.503 91.2235 126.31 93.7649C126.62 89.6117 126.64 85.442 126.369 81.2862C126.045 78.3658 123.989 77.7089 121.608 76.9478C119.458 76.2601 117.027 75.4833 116.373 72.6483C107.728 64.2389 92.6802 64.663 82.3817 67.5963C76.715 69.2104 73.4543 71.2843 73.1626 72.4992L73.1021 72.7493L72.872 72.8644C68.5039 75.0484 67.6536 81.9452 67.7098 87.3462C67.8162 97.522 71.3297 109.079 73.309 110.018C73.4138 110.068 73.4403 110.048 73.4856 110.01C76.4659 107.629 80.1021 110.191 81.7 111.585C82.6425 105.26 85.6771 99.434 90.3193 95.0366C94.9614 90.6391 100.943 87.9241 107.309 87.3252C109.388 87.1242 111.451 86.7784 113.482 86.2902C114.512 86.0237 115.571 85.8847 116.635 85.8764C118.467 85.8486 120.263 86.382 121.783 87.4051V87.4051Z" fill="#2F2E41"/>
<path id="Vector_47" d="M109.579 341.05L48.3249 309.679C43.9679 307.447 42.5246 301.529 45.1077 296.485L85.0469 218.501C87.63 213.458 93.2762 211.17 97.6332 213.401L158.888 244.772C163.245 247.004 164.688 252.923 162.105 257.966L122.166 335.95C119.583 340.994 113.936 343.281 109.579 341.05Z" fill="#E6E6E6"/>
<path id="Vector_48" d="M99.1133 326.628L57.4963 305.314C53.4157 303.224 52.0638 297.681 54.483 292.958L87.6637 228.17C90.083 223.446 95.371 221.304 99.4516 223.394L149.716 249.137C153.797 251.227 155.149 256.77 152.729 261.493L134.704 296.689C123.928 317.73 117.29 335.937 99.1133 326.628Z" fill="white"/>
<path id="Vector_49" d="M119.69 291.248L82.8283 272.369C82.3776 272.048 82.0575 271.576 81.9264 271.038C81.7952 270.5 81.8619 269.933 82.1142 269.441C82.3664 268.948 82.7875 268.563 83.3004 268.355C83.8133 268.147 84.3839 268.131 84.9079 268.309L121.769 287.187C122.22 287.509 122.54 287.981 122.671 288.519C122.802 289.056 122.736 289.623 122.483 290.116C122.231 290.608 121.81 290.994 121.297 291.202C120.784 291.409 120.214 291.426 119.69 291.248V291.248Z" fill="#E88C1A"/>
<path id="Vector_50" d="M87.1319 284.7L78.7197 280.392C78.269 280.071 77.9488 279.598 77.8177 279.06C77.6866 278.523 77.7533 277.956 78.0056 277.463C78.2579 276.971 78.6789 276.585 79.1918 276.377C79.7048 276.169 80.2753 276.153 80.7994 276.331L89.2115 280.639C89.6622 280.961 89.9823 281.433 90.1134 281.971C90.2446 282.508 90.1779 283.075 89.9256 283.568C89.6733 284.061 89.2523 284.446 88.7394 284.654C88.2264 284.862 87.6559 284.878 87.1319 284.7V284.7Z" fill="#E88C1A"/>
<path id="Vector_51" d="M97.9221 300.353L74.611 288.414C74.1603 288.093 73.8402 287.62 73.7091 287.083C73.578 286.545 73.6446 285.978 73.8969 285.486C74.1492 284.993 74.5702 284.608 75.0832 284.4C75.5961 284.192 76.1666 284.176 76.6907 284.354L100.002 296.292C100.452 296.613 100.773 297.086 100.904 297.624C101.035 298.161 100.968 298.728 100.716 299.221C100.464 299.713 100.043 300.099 99.5296 300.307C99.0167 300.515 98.4461 300.531 97.9221 300.353V300.353Z" fill="#E88C1A"/>
<path id="Vector_52" d="M134.277 262.766L97.4153 243.887C96.9646 243.566 96.6444 243.094 96.5133 242.556C96.3822 242.018 96.4488 241.451 96.7011 240.959C96.9534 240.466 97.3744 240.081 97.8874 239.873C98.4003 239.665 98.9709 239.649 99.4948 239.827L136.356 258.705C136.807 259.027 137.127 259.499 137.258 260.037C137.389 260.574 137.323 261.141 137.07 261.634C136.818 262.126 136.397 262.512 135.884 262.72C135.371 262.928 134.801 262.944 134.277 262.766V262.766Z" fill="#E88C1A"/>
<path id="Vector_53" d="M101.719 256.218L93.3067 251.91C92.8559 251.589 92.5358 251.116 92.4047 250.578C92.2736 250.041 92.3403 249.474 92.5925 248.981C92.8448 248.489 93.2659 248.103 93.7788 247.895C94.2917 247.688 94.8623 247.671 95.3863 247.849L103.798 252.157C104.249 252.479 104.569 252.951 104.7 253.489C104.831 254.027 104.765 254.593 104.513 255.086C104.26 255.579 103.839 255.964 103.326 256.172C102.813 256.38 102.243 256.396 101.719 256.218V256.218Z" fill="#E88C1A"/>
<path id="Vector_54" d="M112.509 271.871L89.198 259.932C88.7473 259.611 88.4272 259.138 88.2961 258.601C88.165 258.063 88.2316 257.496 88.4839 257.004C88.7362 256.511 89.1572 256.126 89.6702 255.918C90.1831 255.71 90.7537 255.694 91.2777 255.872L114.589 267.81C115.039 268.131 115.36 268.604 115.491 269.142C115.622 269.679 115.555 270.246 115.303 270.739C115.051 271.231 114.63 271.617 114.117 271.825C113.604 272.033 113.033 272.049 112.509 271.871L112.509 271.871Z" fill="#E88C1A"/>
<path id="Vector_55" d="M58.8204 273.158L44.9822 221.64L81.9616 214.64L79.973 250.001L128.561 300.031C131.133 299.926 133.68 300.571 135.892 301.889C138.104 303.206 139.884 305.139 141.017 307.451C142.149 309.763 142.584 312.354 142.269 314.909C141.954 317.464 140.903 319.873 139.242 321.84C137.582 323.808 135.386 325.25 132.92 325.991C130.455 326.732 127.827 326.739 125.357 326.012C122.888 325.286 120.683 323.856 119.012 321.898C117.34 319.939 116.275 317.537 115.946 314.984L58.8204 273.158Z" fill="#A0616A"/>
<path id="Vector_56" d="M41.1982 163.879C28.646 173.788 44.7567 229.216 44.7567 229.216C47.2511 226.479 50.1496 266.936 53.1985 265.558C61.8636 261.643 77.7457 248.142 83.8685 249.243C87.3701 249.872 83.7015 222.482 83.7015 222.482C83.7015 222.482 83.0268 206.778 81.7586 186.589C81.506 180.874 79.8117 175.317 76.8334 170.433C73.8551 165.55 69.6896 161.5 64.7248 158.659C64.7248 158.659 53.7503 153.969 41.1982 163.879Z" fill="#3F3D56"/>
</g>
</g>
</g>
<defs>
<clipPath id="clip0_0:1">
<rect width="758.67" height="615.326" fill="white"/>
</clipPath>
</defs>
</svg>
